<?xml version="1.0" encoding="utf-8"?>
<!-- Generator: Adobe Illustrator 28.1.0, SVG Export Plug-In . SVG Version: 6.00 Build 0)  -->
<svg version="1.1" id="Layer_1" xmlns="http://www.w3.org/2000/svg" xmlns:xlink="http://www.w3.org/1999/xlink" x="0px" y="0px"
	 viewBox="0 0 96 96" style="enable-background:new 0 0 96 96;" xml:space="preserve">
<path d="M93.3,29.8c-0.7-1.5-2-2.5-3.5-3s-3.1-0.3-4.6,0.4L85,27.3L48,56.5L11,27.3l-0.3-0.2c-1.4-0.7-3.1-0.9-4.6-0.4
	c-1.5,0.5-2.8,1.5-3.5,3c-0.7,1.4-0.9,3.1-0.4,4.6C2.7,35.7,3.7,37,5,37.7l39.9,30.9l0.3,0.2c0.9,0.5,1.9,0.7,2.8,0.7
	c0.8,0,1.9-0.1,2.8-0.7l40.1-31c1.4-0.7,2.3-1.9,2.8-3.4C94.1,32.9,94,31.2,93.3,29.8z"/>
</svg>
