<?xml version="1.0" encoding="utf-8"?>
<!-- Generator: Adobe Illustrator 28.1.0, SVG Export Plug-In . SVG Version: 6.00 Build 0)  -->
<svg version="1.1" id="Layer_1" xmlns="http://www.w3.org/2000/svg" xmlns:xlink="http://www.w3.org/1999/xlink" x="0px" y="0px"
	 viewBox="0 0 96 96" style="enable-background:new 0 0 96 96;" xml:space="preserve">
<path d="M2.6,66.2c0.7,1.5,2,2.5,3.5,3s3.1,0.3,4.6-0.4l0.2-0.1l37-29.2l37,29.2l0.3,0.2c1.4,0.7,3.1,0.9,4.6,0.4s2.8-1.5,3.5-3
	c0.7-1.4,0.9-3.1,0.4-4.6c-0.5-1.4-1.5-2.7-2.8-3.4L51,27.4l-0.3-0.2c-0.9-0.5-1.9-0.7-2.8-0.7c-0.8,0-1.9,0.1-2.8,0.7L5,58.2
	c-1.4,0.7-2.3,1.9-2.8,3.4C1.8,63.1,1.9,64.8,2.6,66.2z"/>
</svg>
