<?xml version="1.0" encoding="utf-8"?>
<!-- Generator: Adobe Illustrator 27.0.0, SVG Export Plug-In . SVG Version: 6.00 Build 0)  -->
<svg version="1.1" id="Layer_1" xmlns="http://www.w3.org/2000/svg" xmlns:xlink="http://www.w3.org/1999/xlink" x="0px" y="0px"
	 viewBox="0 0 110 110" style="enable-background:new 0 0 110 110;" xml:space="preserve">
<style type="text/css">
	.st0{fill:#EFEFEF;}
	.st1{fill:#403671;}

	rect {
		opacity: 0;
		animation: fadeIn 1s linear;
		animation-fill-mode: forwards;
	}

	@keyframes fadeIn {
		from {opacity: 0;}
		to {opacity:1;}
	}
	rect:nth-child(0) { animation-delay: 0.2s; }
	rect:nth-child(1) { animation-delay: 1.3s; }
	rect:nth-child(2) { animation-delay: 0.5s; }
	rect:nth-child(3) { animation-delay: 1.7s; }
	rect:nth-child(4) { animation-delay: 0.8s; }
	rect:nth-child(5) { animation-delay: 1.0s; }
	rect:nth-child(6) { animation-delay: 1.5s; }
	rect:nth-child(7) { animation-delay: 0.4s; }
	rect:nth-child(8) { animation-delay: 1.2s; }
	rect:nth-child(9) { animation-delay: 0.9s; }
	rect:nth-child(10) { animation-delay: 1.4s; }
	rect:nth-child(11) { animation-delay: 0.7s; }
	rect:nth-child(12) { animation-delay: 1.1s; }
	rect:nth-child(13) { animation-delay: 0.3s; }
	rect:nth-child(14) { animation-delay: 1.6s; }
	rect:nth-child(15) { animation-delay: 0.6s; }
	rect:nth-child(16) { animation-delay: 1.9s; }
	rect:nth-child(17) { animation-delay: 0.1s; }
	rect:nth-child(18) { animation-delay: 1.8s; }
	rect:nth-child(19) { animation-delay: 0s; }
	rect:nth-child(20) { animation-delay: 1.5s; }
	rect:nth-child(21) { animation-delay: 0.2s; }
	rect:nth-child(22) { animation-delay: 1.4s; }
	rect:nth-child(23) { animation-delay: 0.6s; }
	rect:nth-child(24) { animation-delay: 1.8s; }
	rect:nth-child(25) { animation-delay: 0.3s; }
	rect:nth-child(26) { animation-delay: 1.7s; }
	rect:nth-child(27) { animation-delay: 0.5s; }
	rect:nth-child(28) { animation-delay: 1.1s; }
	rect:nth-child(29) { animation-delay: 0.9s; }
	rect:nth-child(30) { animation-delay: 1.6s; }
	rect:nth-child(31) { animation-delay: 0.7s; }
	rect:nth-child(32) { animation-delay: 1.3s; }
	rect:nth-child(33) { animation-delay: 0.4s; }
	rect:nth-child(34) { animation-delay: 1.9s; }
	rect:nth-child(35) { animation-delay: 0.8s; }
	rect:nth-child(36) { animation-delay: 0s; }
	rect:nth-child(37) { animation-delay: 1.2s; }
	rect:nth-child(38) { animation-delay: 0.1s; }
	rect:nth-child(39) { animation-delay: 1.0s; }
	rect:nth-child(40) { animation-delay: 0.6s; }
	rect:nth-child(41) { animation-delay: 1.7s; }
	rect:nth-child(42) { animation-delay: 0.5s; }
	rect:nth-child(43) { animation-delay: 1.3s; }
	rect:nth-child(44) { animation-delay: 0.9s; }
	rect:nth-child(45) { animation-delay: 1.6s; }
	rect:nth-child(46) { animation-delay: 0.2s; }
	rect:nth-child(47) { animation-delay: 1.5s; }
	rect:nth-child(48) { animation-delay: 0.4s; }
	rect:nth-child(49) { animation-delay: 1.9s; }
	rect:nth-child(50) { animation-delay: 0.1s; }
	rect:nth-child(51) { animation-delay: 1.8s; }
	rect:nth-child(52) { animation-delay: 0.3s; }
	rect:nth-child(53) { animation-delay: 1.2s; }
	rect:nth-child(54) { animation-delay: 0s; }
	rect:nth-child(55) { animation-delay: 1.1s; }
	rect:nth-child(56) { animation-delay: 0.7s; }
	rect:nth-child(57) { animation-delay: 1.4s; }
	rect:nth-child(58) { animation-delay: 0.8s; }
	rect:nth-child(59) { animation-delay: 1.0s; }
	rect:nth-child(60) { animation-delay: 1.7s; }
	rect:nth-child(61) { animation-delay: 1.5s; }
	rect:nth-child(62) { animation-delay: 0.2s; }
	rect:nth-child(63) { animation-delay: 0.6s; }
	rect:nth-child(64) { animation-delay: 1.8s; }
	rect:nth-child(65) { animation-delay: 0.3s; }
	rect:nth-child(66) { animation-delay: 1.7s; }
	rect:nth-child(67) { animation-delay: 0.5s; }
	rect:nth-child(68) { animation-delay: 1.1s; }
	rect:nth-child(69) { animation-delay: 0.9s; }
	rect:nth-child(70) { animation-delay: 0.2s; }
	rect:nth-child(71) { animation-delay: 1.3s; }
	rect:nth-child(72) { animation-delay: 0.5s; }
	rect:nth-child(73) { animation-delay: 1.7s; }
	rect:nth-child(74) { animation-delay: 0.8s; }
	rect:nth-child(75) { animation-delay: 1.0s; }
	rect:nth-child(76) { animation-delay: 1.5s; }
	rect:nth-child(77) { animation-delay: 0.4s; }
	rect:nth-child(78) { animation-delay: 1.2s; }
	rect:nth-child(79) { animation-delay: 0.9s; }
	rect:nth-child(80) { animation-delay: 1.6s; }
	rect:nth-child(81) { animation-delay: 0.7s; }
	rect:nth-child(82) { animation-delay: 1.3s; }
	rect:nth-child(83) { animation-delay: 0.4s; }
	rect:nth-child(84) { animation-delay: 1.9s; }
	rect:nth-child(85) { animation-delay: 0.8s; }
	rect:nth-child(86) { animation-delay: 0s; }
	rect:nth-child(87) { animation-delay: 1.2s; }
	rect:nth-child(88) { animation-delay: 0.8s; }
	rect:nth-child(89) { animation-delay: 0s; }
	rect:nth-child(90) { animation-delay: 1.2s; }
	rect:nth-child(91) { animation-delay: 1.7s; }
	rect:nth-child(92) { animation-delay: 0.5s; }
	rect:nth-child(93) { animation-delay: 1.3s; }
	rect:nth-child(94) { animation-delay: 0.9s; }
	rect:nth-child(95) { animation-delay: 1.6s; }
	rect:nth-child(96) { animation-delay: 0.2s; }
	rect:nth-child(97) { animation-delay: 1.5s; }
	rect:nth-child(98) { animation-delay: 0.4s; }
	rect:nth-child(99) { animation-delay: 1.9s; }
	rect:nth-child(100) { animation-delay: 0.1s; }
	rect:nth-child(101) { animation-delay: 0.5s; }
	rect:nth-child(102) { animation-delay: 0.4s; }
	rect:nth-child(103) { animation-delay: 1.3s; }
	rect:nth-child(104) { animation-delay: 0.9s; }
	rect:nth-child(105) { animation-delay: 1.6s; }
	rect:nth-child(106) { animation-delay: 0.2s; }
	rect:nth-child(107) { animation-delay: 1.5s; }
	rect:nth-child(108) { animation-delay: 0.4s; }
	rect:nth-child(109) { animation-delay: 1.9s; }
	rect:nth-child(110) { animation-delay: 1.4s; }
	rect:nth-child(111) { animation-delay: 0.7s; }
	rect:nth-child(112) { animation-delay: 1.1s; }
	rect:nth-child(113) { animation-delay: 0.3s; }
	rect:nth-child(114) { animation-delay: 1.6s; }
	rect:nth-child(115) { animation-delay: 0.6s; }
	rect:nth-child(116) { animation-delay: 1.9s; }
	rect:nth-child(117) { animation-delay: 0.1s; }
	rect:nth-child(118) { animation-delay: 1.8s; }
	rect:nth-child(119) { animation-delay: 0s; }
	rect:nth-child(120) { animation-delay: 1.5s; }
	rect:nth-child(121) { animation-delay: 0.2s; }
	rect:nth-child(122) { animation-delay: 1.4s; }
	rect:nth-child(123) { animation-delay: 0.6s; }
	rect:nth-child(124) { animation-delay: 1.8s; }
	rect:nth-child(125) { animation-delay: 0.3s; }
	rect:nth-child(126) { animation-delay: 1.7s; }
	rect:nth-child(127) { animation-delay: 0.5s; }
	rect:nth-child(128) { animation-delay: 1.1s; }
	rect:nth-child(129) { animation-delay: 0.9s; }
	rect:nth-child(130) { animation-delay: 1.6s; }
	rect:nth-child(131) { animation-delay: 0.7s; }
	rect:nth-child(132) { animation-delay: 1.3s; }
	rect:nth-child(133) { animation-delay: 0.4s; }
	rect:nth-child(134) { animation-delay: 1.9s; }
	rect:nth-child(135) { animation-delay: 0.8s; }
	rect:nth-child(136) { animation-delay: 0s; }
	rect:nth-child(137) { animation-delay: 1.2s; }
	rect:nth-child(138) { animation-delay: 0.1s; }
	rect:nth-child(139) { animation-delay: 1.0s; }
	rect:nth-child(140) { animation-delay: 0.6s; }
	rect:nth-child(141) { animation-delay: 1.7s; }
	rect:nth-child(142) { animation-delay: 0.5s; }
	rect:nth-child(143) { animation-delay: 1.3s; }
	rect:nth-child(144) { animation-delay: 0.9s; }
	rect:nth-child(145) { animation-delay: 1.6s; }
	rect:nth-child(146) { animation-delay: 0.2s; }
	rect:nth-child(147) { animation-delay: 1.5s; }
	rect:nth-child(148) { animation-delay: 0.4s; }
	rect:nth-child(149) { animation-delay: 1.9s; }
	rect:nth-child(150) { animation-delay: 0.1s; }
	rect:nth-child(151) { animation-delay: 1.8s; }
	rect:nth-child(152) { animation-delay: 0.3s; }
	rect:nth-child(153) { animation-delay: 1.2s; }
	rect:nth-child(154) { animation-delay: 0s; }
	rect:nth-child(155) { animation-delay: 1.1s; }
	rect:nth-child(156) { animation-delay: 0.7s; }
	rect:nth-child(157) { animation-delay: 1.4s; }
	rect:nth-child(158) { animation-delay: 0.8s; }
	rect:nth-child(159) { animation-delay: 1.0s; }
	rect:nth-child(160) { animation-delay: 1.7s; }
</style>
<g>
	<rect x="11" y="11" class="st0" width="8" height="8"/>
	<rect x="21" y="11" class="st0" width="8" height="8"/>
	<rect x="31" y="11" class="st1" width="8" height="8"/>
	<rect x="41" y="11" class="st1" width="8" height="8"/>
	<rect x="51" y="11" class="st1" width="8" height="8"/>
	<rect x="61" y="11" class="st0" width="8" height="8"/>
	<rect x="71" y="11" class="st0" width="8" height="8"/>
	<rect x="81" y="11" class="st0" width="8" height="8"/>
	<rect x="91" y="11" class="st0" width="8" height="8"/>
	<rect x="11" y="21" class="st0" width="8" height="8"/>
	<rect x="21" y="21" class="st0" width="8" height="8"/>
	<rect x="31" y="21" class="st0" width="8" height="8"/>
	<rect x="41" y="21" class="st0" width="8" height="8"/>
	<rect x="51" y="21" class="st1" width="8" height="8"/>
	<rect x="61" y="21" class="st0" width="8" height="8"/>
	<rect x="71" y="21" class="st0" width="8" height="8"/>
	<rect x="81" y="21" class="st0" width="8" height="8"/>
	<rect x="91" y="21" class="st0" width="8" height="8"/>
	<rect x="11" y="31" class="st0" width="8" height="8"/>
	<rect x="21" y="31" class="st0" width="8" height="8"/>
	<rect x="31" y="31" class="st0" width="8" height="8"/>
	<rect x="41" y="31" class="st0" width="8" height="8"/>
	<rect x="51" y="31" class="st1" width="8" height="8"/>
	<rect x="61" y="31" class="st1" width="8" height="8"/>
	<rect x="71" y="31" class="st1" width="8" height="8"/>
	<rect x="81" y="31" class="st1" width="8" height="8"/>
	<rect x="91" y="31" class="st1" width="8" height="8"/>
	<rect x="11" y="41" class="st0" width="8" height="8"/>
	<rect x="21" y="41" class="st0" width="8" height="8"/>
	<rect x="31" y="41" class="st0" width="8" height="8"/>
	<rect x="41" y="41" class="st0" width="8" height="8"/>
	<rect x="51" y="41" class="st1" width="8" height="8"/>
	<rect x="61" y="41" class="st0" width="8" height="8"/>
	<rect x="71" y="41" class="st0" width="8" height="8"/>
	<rect x="81" y="41" class="st0" width="8" height="8"/>
	<rect x="91" y="41" class="st1" width="8" height="8"/>
	<rect x="11" y="51" class="st1" width="8" height="8"/>
	<rect x="21" y="51" class="st0" width="8" height="8"/>
	<rect x="31" y="51" class="st0" width="8" height="8"/>
	<rect x="41" y="51" class="st0" width="8" height="8"/>
	<rect x="51" y="51" class="st1" width="8" height="8"/>
	<rect x="61" y="51" class="st0" width="8" height="8"/>
	<rect x="71" y="51" class="st0" width="8" height="8"/>
	<rect x="81" y="51" class="st0" width="8" height="8"/>
	<rect x="91" y="51" class="st1" width="8" height="8"/>
	<rect x="11" y="61" class="st1" width="8" height="8"/>
	<rect x="21" y="61" class="st1" width="8" height="8"/>
	<rect x="31" y="61" class="st1" width="8" height="8"/>
	<rect x="41" y="61" class="st1" width="8" height="8"/>
	<rect x="51" y="61" class="st1" width="8" height="8"/>
	<rect x="61" y="61" class="st1" width="8" height="8"/>
	<rect x="71" y="61" class="st1" width="8" height="8"/>
	<rect x="81" y="61" class="st1" width="8" height="8"/>
	<rect x="91" y="61" class="st1" width="8" height="8"/>
	<rect x="11" y="71" class="st0" width="8" height="8"/>
	<rect x="21" y="71" class="st0" width="8" height="8"/>
	<rect x="31" y="71" class="st0" width="8" height="8"/>
	<rect x="41" y="71" class="st0" width="8" height="8"/>
	<rect x="51" y="71" class="st1" width="8" height="8"/>
	<rect x="61" y="71" class="st0" width="8" height="8"/>
	<rect x="71" y="71" class="st0" width="8" height="8"/>
	<rect x="81" y="71" class="st0" width="8" height="8"/>
	<rect x="91" y="71" class="st1" width="8" height="8"/>
	<rect x="11" y="81" class="st0" width="8" height="8"/>
	<rect x="21" y="81" class="st0" width="8" height="8"/>
	<rect x="31" y="81" class="st0" width="8" height="8"/>
	<rect x="41" y="81" class="st0" width="8" height="8"/>
	<rect x="51" y="81" class="st1" width="8" height="8"/>
	<rect x="61" y="81" class="st0" width="8" height="8"/>
	<rect x="71" y="81" class="st0" width="8" height="8"/>
	<rect x="81" y="81" class="st0" width="8" height="8"/>
	<rect x="91" y="81" class="st1" width="8" height="8"/>
	<rect x="11" y="91" class="st0" width="8" height="8"/>
	<rect x="21" y="91" class="st0" width="8" height="8"/>
	<rect x="31" y="91" class="st0" width="8" height="8"/>
	<rect x="41" y="91" class="st0" width="8" height="8"/>
	<rect x="51" y="91" class="st1" width="8" height="8"/>
	<rect x="61" y="91" class="st0" width="8" height="8"/>
	<rect x="71" y="91" class="st0" width="8" height="8"/>
	<rect x="81" y="91" class="st0" width="8" height="8"/>
	<rect x="91" y="91" class="st1" width="8" height="8"/>
</g>
<rect x="91" y="1" class="st0" width="8" height="8"/>
<rect x="81" y="1" class="st0" width="8" height="8"/>
<rect x="71" y="1" class="st0" width="8" height="8"/>
<rect x="61" y="1" class="st0" width="8" height="8"/>
<rect x="51" y="1" class="st0" width="8" height="8"/>
<rect x="41" y="1" class="st0" width="8" height="8"/>
<rect x="31" y="1" class="st0" width="8" height="8"/>
<rect x="21" y="1" class="st0" width="8" height="8"/>
<rect x="11" y="1" class="st0" width="8" height="8"/>
<rect x="1" y="1" class="st0" width="8" height="8"/>
<rect x="101" y="1" class="st0" width="8" height="8"/>
<rect x="101" y="11" class="st0" width="8" height="8"/>
<rect x="101" y="21" class="st0" width="8" height="8"/>
<rect x="101" y="31" class="st0" width="8" height="8"/>
<rect x="101" y="41" class="st0" width="8" height="8"/>
<rect x="101" y="51" class="st0" width="8" height="8"/>
<rect x="101" y="61" class="st0" width="8" height="8"/>
<rect x="101" y="71" class="st0" width="8" height="8"/>
<rect x="101" y="81" class="st0" width="8" height="8"/>
<rect x="101" y="91" class="st0" width="8" height="8"/>
<rect x="91" y="101" class="st0" width="8" height="8"/>
<rect x="81" y="101" class="st0" width="8" height="8"/>
<rect x="71" y="101" class="st0" width="8" height="8"/>
<rect x="61" y="101" class="st0" width="8" height="8"/>
<rect x="51" y="101" class="st0" width="8" height="8"/>
<rect x="41" y="101" class="st0" width="8" height="8"/>
<rect x="31" y="101" class="st0" width="8" height="8"/>
<rect x="21" y="101" class="st0" width="8" height="8"/>
<rect x="11" y="101" class="st0" width="8" height="8"/>
<rect x="1" y="101" class="st0" width="8" height="8"/>
<rect x="101" y="101" class="st0" width="8" height="8"/>
<rect x="1" y="11" class="st0" width="8" height="8"/>
<rect x="1" y="21" class="st0" width="8" height="8"/>
<rect x="1" y="31" class="st0" width="8" height="8"/>
<rect x="1" y="41" class="st0" width="8" height="8"/>
<rect x="1" y="51" class="st0" width="8" height="8"/>
<rect x="1" y="61" class="st0" width="8" height="8"/>
<rect x="1" y="71" class="st0" width="8" height="8"/>
<rect x="1" y="81" class="st0" width="8" height="8"/>
<rect x="1" y="91" class="st0" width="8" height="8"/>
</svg>
